<?xml version="1.0" encoding="UTF-8" standalone="no"?>
<!-- Created with Inkscape (http://www.inkscape.org/) -->

<svg
   width="128.01866mm"
   height="30.471939mm"
   viewBox="0 0 128.01866 30.471939"
   version="1.1"
   id="svg1"
   xml:space="preserve"
   inkscape:version="1.4 (86a8ad7, 2024-10-11)"
   sodipodi:docname="golaso_text_logo.svg"
   xmlns:inkscape="http://www.inkscape.org/namespaces/inkscape"
   xmlns:sodipodi="http://sodipodi.sourceforge.net/DTD/sodipodi-0.dtd"
   xmlns="http://www.w3.org/2000/svg"
   xmlns:svg="http://www.w3.org/2000/svg"><sodipodi:namedview
     id="namedview1"
     pagecolor="#ffffff"
     bordercolor="#000000"
     borderopacity="0.25"
     inkscape:showpageshadow="2"
     inkscape:pageopacity="0.0"
     inkscape:pagecheckerboard="0"
     inkscape:deskcolor="#d1d1d1"
     inkscape:document-units="mm"
     inkscape:zoom="1.4910406"
     inkscape:cx="151.23666"
     inkscape:cy="447.67393"
     inkscape:window-width="3840"
     inkscape:window-height="2054"
     inkscape:window-x="-11"
     inkscape:window-y="-11"
     inkscape:window-maximized="1"
     inkscape:current-layer="svg1" /><defs
     id="defs1" /><path
     id="path1"
     style="fill:#000000"
     d="m 78.07629,2.2617679 -3.24115,0.07441 -3.24114,0.07442 v 5.423947 5.4239601 l 3.9026,0.0734 3.90261,0.0729 v 0.39429 0.39429 l -1.07332,4.42712 -1.07384,4.42764 -0.51366,2.00246 -0.51418,2.00246 v 0.18035 0.18035 h 4.06073 4.06125 l 0.55862,-2.18281 0.55914,-2.18281 2.127,-8.61808 2.12701,-8.6186001 v -0.44338 -0.4439 h -5.82084 -5.82083 v -1.331187 z m -25.43204,2.646867 -3.30729,0.0739 -3.30729,0.0739 0.015,10.9802101 0.015,10.98021 0.001,0.19843 10e-4,0.19844 h 3.30109 3.30109 l 0.0723,-4.56406 0.0724,-4.56406 2.98897,4.44469 2.98948,4.4452 0.32918,0.12609 0.32918,0.12661 4.03696,-0.0734 4.03748,-0.0734 -3.98219,-5.99602 -3.98218,-5.99601 v -0.15555 -0.15555 h 2.64583 2.64583 v -5.0270801 -5.02708 h -3.43958 -3.43958 v 3.55637 3.5563701 l -0.19844,0.12093 -0.19844,0.12143 -2.46341,-3.6850401 z m 42.35194,0.015 0.0729,4.16719 0.0729,4.1671901 1.15187,0.13229 1.15135,0.13229 -0.0388,6.75721 -0.0388,6.75773 0.1881,0.18758 0.1881,0.1881 h 3.26286 3.26337 V 16.168405 4.9236149 H 99.6331 Z m 14.81564,0 0.0729,4.16719 0.0729,4.1671901 2.23345,0.13229 2.23294,0.13229 0.60462,2.38125 0.60461,2.38125 0.007,0.32194 0.007,0.32143 -2.84427,0.0755 -2.84427,0.0749 -0.0739,3.82457 -0.0734,3.82406 0.13126,0.34313 0.13074,0.34261 h 2.7864 2.78639 v -3.57187 -3.57188 h 0.20102 0.20051 l 0.48162,2.18282 0.48162,2.18281 0.39481,1.38906 0.39481,1.38906 h 3.55275 3.55328 v -0.10386 -0.10336 l -1.47898,-6.44508 -1.47898,-6.44457 -1.03456,-4.6069501 -1.03457,-4.60696 v -0.0894 -0.0894 h -5.0338 z m -105.81887,5.2e-4 v 4.23333 4.2333301 h 1.19063 1.19062 v 7.01146 7.01146 H 9.6815 12.98879 V 16.168945 4.9241549 H 8.49088 Z m 14.81667,0 v 4.23333 4.2333301 h 0.77463 0.77463 l 0.15916,1.38907 0.15916,1.38906 0.38913,5.15937 0.38912,5.15938 v 0.46302 0.46302 h 7.66258 7.6631 l 0.25476,-0.99219 0.25529,-0.99218 1.35392,-7.27605 1.35392,-7.27604 0.5178,-2.3352501 0.5178,-2.33475 v -0.64182 -0.6413 h -11.1125 z m 13.41365,8.6563201 -1.31723,5.33249 -2.82309,0.063 -0.56482,-5.333 z" /></svg>
